<?xml version="1.0" encoding="utf-8"?>
<!-- Generator: Adobe Illustrator 26.0.2, SVG Export Plug-In . SVG Version: 6.00 Build 0)  -->
<svg version="1.1" id="Layer_1" xmlns="http://www.w3.org/2000/svg" xmlns:xlink="http://www.w3.org/1999/xlink" x="0px" y="0px"
	 viewBox="0 0 1311 242" style="enable-background:new 0 0 1311 242;" xml:space="preserve">
<style type="text/css">
	.st0{fill:url(#SVGID_1_);}
	.st1{fill:#FFFFFF;}
</style>
<g>
	<g>
		<path d="M407.2,152.6h-38.6l-8.1,28.3h-18l37.7-121.6h15.5l37.7,121.6h-18.1L407.2,152.6z M373.4,135.5h28.9l-14.5-50.4
			L373.4,135.5z"/>
		<path d="M474.4,135.8v45.1H457V59.3h38.1c11.1,0,20,3.5,26.5,10.6c6.6,7.1,9.8,16.4,9.8,28.1c0,11.9-3.2,21.2-9.6,27.8
			c-6.4,6.6-15.4,9.9-27,9.9H474.4z M474.4,118.8h20.8c6.2,0,10.9-1.8,14.1-5.3c3.2-3.5,4.9-8.6,4.9-15.3c0-6.6-1.6-11.8-4.9-15.7
			c-3.3-3.9-7.8-5.9-13.6-6.1h-21.3V118.8z"/>
		<path d="M631.1,76.3H600v104.6h-17.2V76.3H552v-17h79.1V76.3z"/>
		<path d="M734.2,123.3c0,11.9-1.7,22.4-5.1,31.4c-3.4,9-8.2,15.9-14.5,20.7c-6.3,4.8-13.5,7.2-21.7,7.2c-8.1,0-15.3-2.4-21.6-7.2
			c-6.3-4.8-11.2-11.7-14.7-20.6c-3.4-8.9-5.2-19.2-5.2-30.8v-6.8c0-11.9,1.7-22.3,5.2-31.4c3.4-9.1,8.3-16,14.6-20.8
			c6.3-4.8,13.5-7.2,21.6-7.2c8.1,0,15.3,2.4,21.6,7.1c6.3,4.8,11.1,11.6,14.6,20.5c3.4,8.9,5.2,19.3,5.2,31.2V123.3z M716.8,116.9
			c0-13.5-2.1-23.8-6.3-31c-4.2-7.2-10.1-10.8-17.8-10.8c-7.5,0-13.3,3.6-17.6,10.7c-4.2,7.2-6.4,17.3-6.5,30.4v7
			c0,13.4,2.1,23.7,6.4,31c4.3,7.3,10.2,10.9,17.8,10.9c7.7,0,13.6-3.6,17.7-10.7c4.1-7.1,6.2-17.5,6.2-31.2V116.9z"/>
		<path d="M815.9,149.6c0-5.3-1.5-9.5-4.6-12.4c-3.1-2.9-8.6-5.8-16.7-8.8c-8-3-14.4-6.2-19.2-9.9c-9.1-7-13.6-16-13.6-27.2
			c0-9.8,3.3-17.9,9.8-24.2c6.6-6.3,15.1-9.5,25.5-9.5c6.9,0,13.1,1.6,18.6,4.7c5.4,3.1,9.7,7.6,12.8,13.3
			c3.1,5.8,4.7,12.2,4.7,19.2h-17.3c0-6.3-1.6-11.3-4.9-14.9c-3.3-3.6-7.9-5.4-14-5.4c-5.7,0-10.1,1.5-13.2,4.4
			c-3.1,3-4.7,7.1-4.7,12.4c0,4.5,1.7,8.2,5.1,11.2c3.4,3,8.9,5.9,16.7,8.7c7.8,2.8,14,6,18.7,9.6c4.7,3.6,8.2,7.7,10.3,12.4
			c2.2,4.6,3.3,10.1,3.3,16.3c0,10.1-3.2,18.2-9.6,24.2c-6.4,6-15,9-25.9,9c-7.2,0-13.8-1.6-19.9-4.9c-6.1-3.3-10.8-7.8-14.1-13.5
			c-3.4-5.7-5-12.4-5-20H776c0,6.9,1.9,12.3,5.6,16c3.7,3.8,9.1,5.7,16.1,5.7c6,0,10.6-1.5,13.6-4.5
			C814.4,158.4,815.9,154.5,815.9,149.6z"/>
		<path d="M883.2,59.3l28.8,93.2l28.7-93.2h22.4v121.6h-17.3v-40.1l1.7-53.6l-29.5,93.7h-12.4l-29.4-93.6l1.7,53.5v40.1h-17.3V59.3
			H883.2z"/>
		<path d="M1053,152.6h-38.6l-8.1,28.3h-18l37.7-121.6h15.5l37.7,121.6h-18.1L1053,152.6z M1019.2,135.5h28.9l-14.5-50.4
			L1019.2,135.5z"/>
		<path d="M1155,149.6c0-5.3-1.5-9.5-4.6-12.4c-3.1-2.9-8.6-5.8-16.7-8.8c-8-3-14.4-6.2-19.2-9.9c-9.1-7-13.6-16-13.6-27.2
			c0-9.8,3.3-17.9,9.8-24.2c6.6-6.3,15.1-9.5,25.5-9.5c6.9,0,13.1,1.6,18.6,4.7c5.4,3.1,9.7,7.6,12.8,13.3
			c3.1,5.8,4.7,12.2,4.7,19.2H1155c0-6.3-1.6-11.3-4.9-14.9c-3.3-3.6-7.9-5.4-14-5.4c-5.7,0-10.1,1.5-13.2,4.4
			c-3.1,3-4.7,7.1-4.7,12.4c0,4.5,1.7,8.2,5.1,11.2c3.4,3,8.9,5.9,16.7,8.7c7.8,2.8,14,6,18.7,9.6c4.7,3.6,8.2,7.7,10.3,12.4
			c2.2,4.6,3.3,10.1,3.3,16.3c0,10.1-3.2,18.2-9.6,24.2c-6.4,6-15,9-25.9,9c-7.2,0-13.8-1.6-19.9-4.9c-6.1-3.3-10.8-7.8-14.1-13.5
			c-3.4-5.7-5-12.4-5-20h17.3c0,6.9,1.9,12.3,5.6,16c3.7,3.8,9.1,5.7,16.1,5.7c6,0,10.6-1.5,13.6-4.5
			C1153.5,158.4,1155,154.5,1155,149.6z"/>
		<path d="M1228.5,128.4l-11.3,14.6v37.9h-17.3V59.3h17.3v57l9.6-14.4l29.2-42.6h21l-37.1,53.9l39.2,67.7h-20.5L1228.5,128.4z"/>
	</g>
	
		<linearGradient id="SVGID_1_" gradientUnits="userSpaceOnUse" x1="131.3127" y1="0.2604" x2="131.3127" y2="267.9266" gradientTransform="matrix(1 0 0 -1 0 244)">
		<stop  offset="8.580000e-02" style="stop-color:#8D29C1"/>
		<stop  offset="0.2383" style="stop-color:#942BBB"/>
		<stop  offset="0.4667" style="stop-color:#A92FAC"/>
		<stop  offset="0.7413" style="stop-color:#CA3793"/>
		<stop  offset="1" style="stop-color:#F03F77"/>
	</linearGradient>
	<path class="st0" d="M17.4,90.5c0-27.8,0-41.8,5.4-52.4c4.8-9.4,12.4-17,21.7-21.7C55.2,11,69.1,11,96.9,11h68.8
		c27.8,0,41.8,0,52.4,5.4c9.4,4.8,17,12.4,21.7,21.7c5.4,10.6,5.4,24.5,5.4,52.4v68.8c0,27.8,0,41.8-5.4,52.4
		c-4.8,9.4-12.4,17-21.7,21.7c-10.6,5.4-24.5,5.4-52.4,5.4H96.9c-27.8,0-41.8,0-52.4-5.4c-9.4-4.8-17-12.4-21.7-21.7
		c-5.4-10.6-5.4-24.5-5.4-52.4V90.5z"/>
	<path class="st1" d="M131.3,52.4c-40,0-72.5,32.5-72.5,72.5c0,28.7,16.8,53.6,41.1,65.3v0h0.1c9.5,4.5,20.1,7.1,31.3,7.1
		c40,0,72.5-32.5,72.5-72.5S171.3,52.4,131.3,52.4z M131.3,58.4c36.7,0,66.5,29.8,66.5,66.5c0,10.5-2.5,20.5-6.8,29.4
		c-9.6-4.7-19.3-8.1-29.1-10.4V88.3c0-1.9-1.5-3.5-3.4-3.5h-12.2h-30.7h-12.2c-1.9,0-3.4,1.6-3.4,3.5v55.8
		c-9.5,2.3-19,5.7-28.3,10.2c-4.4-8.9-6.9-18.8-6.9-29.4C64.8,88.2,94.6,58.4,131.3,58.4z M75.5,161c7.9-3.9,16.1-6.9,24.5-9v31.5
		C90,178.2,81.6,170.4,75.5,161z M115.6,189.5v-74.3c0-8.6,7-15.7,15.5-15.7c8.4,0,15.2,7,15.2,15.5c0,0.1,0,0.1,0,0.2h0v25.8
		c-7.2-0.8-14.4-1.1-21.6-0.7l-5.9,8.6c9.2-0.8,18.2-0.7,27.1,0.3c0.1,0,0.2,0,0.2,0c0.1,0,0.1,0,0.2,0c1.5,0.2,7.2,0.9,12.3,2.2
		l-12.3,4.2v34.1c-4.8,1.1-9.8,1.7-14.9,1.7C125.9,191.4,120.6,190.8,115.6,189.5z M161.9,184v-31.8c8.4,2.1,16.7,5.2,25,9.2
		C180.6,170.9,172,178.7,161.9,184z"/>
</g>
</svg>
