<?xml version="1.0" encoding="utf-8"?>
<!-- Generator: Adobe Illustrator 26.0.2, SVG Export Plug-In . SVG Version: 6.00 Build 0)  -->
<svg version="1.1" id="Layer_1" xmlns="http://www.w3.org/2000/svg" xmlns:xlink="http://www.w3.org/1999/xlink" x="0px" y="0px"
	 viewBox="0 0 35 33" style="enable-background:new 0 0 35 33;" xml:space="preserve">
<style type="text/css">
	.st0{fill:url(#SVGID_1_);}
	.st1{fill:#FFFFFF;}
</style>
<linearGradient id="SVGID_1_" gradientUnits="userSpaceOnUse" x1="17.5" y1="2.4328" x2="17.5" y2="36.3695" gradientTransform="matrix(1 0 0 -1 0 34)">
	<stop  offset="8.580000e-02" style="stop-color:#8D29C1"/>
	<stop  offset="0.2383" style="stop-color:#942BBB"/>
	<stop  offset="0.4667" style="stop-color:#A92FAC"/>
	<stop  offset="0.7413" style="stop-color:#CA3793"/>
	<stop  offset="1" style="stop-color:#F03F77"/>
</linearGradient>
<path class="st0" d="M3.1,12.1c0-3.5,0-5.3,0.7-6.6c0.6-1.2,1.6-2.1,2.8-2.8c1.3-0.7,3.1-0.7,6.6-0.7h8.7c3.5,0,5.3,0,6.6,0.7
	c1.2,0.6,2.1,1.6,2.8,2.8c0.7,1.3,0.7,3.1,0.7,6.6v8.7c0,3.5,0,5.3-0.7,6.6c-0.6,1.2-1.6,2.1-2.8,2.8c-1.3,0.7-3.1,0.7-6.6,0.7h-8.7
	c-3.5,0-5.3,0-6.6-0.7c-1.2-0.6-2.1-1.6-2.8-2.8c-0.7-1.3-0.7-3.1-0.7-6.6V12.1z"/>
<path class="st1" d="M17.5,7.3c-5.1,0-9.2,4.1-9.2,9.2c0,3.6,2.1,6.8,5.2,8.3v0h0c1.2,0.6,2.5,0.9,4,0.9c5.1,0,9.2-4.1,9.2-9.2
	S22.6,7.3,17.5,7.3z M17.5,8.1c4.7,0,8.4,3.8,8.4,8.4c0,1.3-0.3,2.6-0.9,3.7c-1.2-0.6-2.4-1-3.7-1.3v-7c0-0.2-0.2-0.4-0.4-0.4h-1.5
	h-3.9H14c-0.2,0-0.4,0.2-0.4,0.4v7.1c-1.2,0.3-2.4,0.7-3.6,1.3c-0.6-1.1-0.9-2.4-0.9-3.7C9.1,11.8,12.8,8.1,17.5,8.1z M10.4,21.1
	c1-0.5,2-0.9,3.1-1.1v4C12.3,23.3,11.2,22.3,10.4,21.1z M15.5,24.7v-9.4c0-1.1,0.9-2,2-2s1.9,0.9,1.9,2c0,0,0,0,0,0h0v3.3
	c-0.9-0.1-1.8-0.1-2.7-0.1l-0.8,1.1c1.2-0.1,2.3-0.1,3.4,0c0,0,0,0,0,0c0,0,0,0,0,0c0.2,0,0.9,0.1,1.6,0.3l-1.6,0.5v4.3
	c-0.6,0.1-1.2,0.2-1.9,0.2C16.8,24.9,16.1,24.8,15.5,24.7z M21.4,24v-4c1.1,0.3,2.1,0.7,3.2,1.2C23.8,22.3,22.7,23.3,21.4,24z"/>
</svg>
